<?xml version="1.0" encoding="UTF-8"?>
<!DOCTYPE svg PUBLIC "-//W3C//DTD SVG 1.1//EN" "http://www.w3.org/Graphics/SVG/1.1/DTD/svg11.dtd">
<!-- Creator: CorelDRAW 2020 (64-Bit) -->
<svg xmlns="http://www.w3.org/2000/svg" xml:space="preserve" width="70px" height="70px" version="1.1" style="shape-rendering:geometricPrecision; text-rendering:geometricPrecision; image-rendering:optimizeQuality; fill-rule:evenodd; clip-rule:evenodd"
viewBox="0 0 70 69.94"
 xmlns:xlink="http://www.w3.org/1999/xlink"
 xmlns:xodm="http://www.corel.com/coreldraw/odm/2003">
 <defs>
  <style type="text/css">
   <![CDATA[
    .fil0 {fill:#5B9AFF;fill-rule:nonzero}
   ]]>
  </style>
 </defs>
 <g id="Слой_x0020_1">
  <metadata id="CorelCorpID_0Corel-Layer"/>
  <path class="fil0" d="M9.5 0.27c-0.54,0.08 -1.94,0.41 -2.48,0.59 -1.77,0.59 -3.72,2.02 -4.9,3.61 -1.11,1.47 -1.54,2.4 -1.95,4.16 -0.12,0.5 -0.24,1.18 -0.27,1.51 -0.1,0.83 -0.1,49.31 -0.01,50.1 0.15,1.3 0.62,2.95 1.12,3.93 0.66,1.29 1.84,2.73 2.91,3.57 1.44,1.12 2.43,1.61 4.08,2.03 1.62,0.4 -0.56,0.37 26.83,0.37 27.31,0 25.18,0.03 26.8,-0.37 1.43,-0.35 2.32,-0.75 3.55,-1.61 1.46,-1.03 2.67,-2.44 3.47,-4.04 0.58,-1.16 0.99,-2.64 1.13,-4.04 0.04,-0.44 0.06,-8.82 0.04,-25.35 -0.02,-23.21 -0.03,-24.73 -0.13,-25.23 -0.45,-2.18 -0.88,-3.25 -1.89,-4.69 -0.65,-0.93 -1.4,-1.71 -2.28,-2.36 -1.35,-1.02 -2.31,-1.48 -3.8,-1.85 -1.74,-0.43 0.5,-0.4 -26.98,-0.4 -13.69,0.01 -25.04,0.03 -25.24,0.07zm45.93 8.92c1.62,0.19 3.35,1.33 4.23,2.8 0.35,0.6 0.67,1.4 0.75,1.92 0.04,0.3 0.06,6.71 0.05,21.39l-0.02 20.95 -0.18 0.47c-0.64,1.68 -1.61,2.81 -3.01,3.49 -0.76,0.38 -1.1,0.49 -1.71,0.57 -0.31,0.04 -7.72,0.06 -21.24,0.05l-20.76 -0.02 -0.65 -0.23c-1.9,-0.69 -3.19,-1.98 -3.86,-3.9l-0.18 -0.49 0 -21.18 0 -21.17 0.15 -0.43c0.35,-1.06 0.84,-1.85 1.58,-2.57 0.57,-0.56 1.03,-0.88 1.7,-1.18 0.63,-0.28 1.04,-0.41 1.53,-0.47 0.64,-0.07 40.96,-0.07 41.62,0z"/>
  <path class="fil0" d="M33.02 13.8c-5.02,0.68 -9.36,3.84 -11.78,8.57 -1.08,2.1 -1.79,4.81 -1.89,7.2l-0.01 0.35 -1.79 0.02c-1.72,0.01 -1.79,0.01 -1.9,0.14 -0.12,0.13 -0.12,0.47 -0.12,13.21l0 13.09 0.15 0.12c0.14,0.11 0.53,0.11 19.15,0.11 18.61,0 19,0 19.14,-0.11l0.15 -0.12 0 -13.09c0,-12.47 0,-13.09 -0.11,-13.2 -0.1,-0.1 -0.29,-0.12 -1.9,-0.14l-1.79 -0.03 -0.02 -0.35c-0.23,-5.69 -3.33,-11.03 -8,-13.8 -1.56,-0.93 -3.23,-1.55 -5.1,-1.88 -0.96,-0.17 -3.22,-0.22 -4.18,-0.09zm3.37 7.56c1.58,0.34 3,1.13 4.15,2.28 1.56,1.57 2.48,3.57 2.72,5.91l0.04 0.4 -8.47 0 -8.47 0 0.04 -0.36c0.08,-0.79 0.17,-1.26 0.31,-1.8 0.67,-2.47 2.35,-4.59 4.5,-5.69 0.88,-0.44 1.68,-0.7 2.74,-0.86 0.38,-0.05 2.01,0.03 2.44,0.12zm-0.44 15.17c1.02,0.47 1.69,1.43 1.84,2.62 0.13,1.03 -0.2,2.01 -0.95,2.84l-0.42 0.45 0 3.56 0 3.56 -1.62 0 -1.63 0 0 -3.58 0 -3.57 -0.39 -0.41c-0.68,-0.72 -0.98,-1.46 -0.98,-2.43 0,-0.94 0.29,-1.7 0.9,-2.36 0.85,-0.92 2.14,-1.19 3.25,-0.68z"/>
 </g>
</svg>
